<svg width="145" height="36" viewBox="0 0 145 36" xmlns="http://www.w3.org/2000/svg">
<path d="M18.1878 8.25127C18.5342 7.47604 19.0787 7.13687 19.8705 7.13687C20.6624 7.13687 21.2069 7.47604 21.5038 8.25127L31.6501 34.5616H38.1337L26.8492 5.48938C25.6612 2.43678 23.3845 1.27393 19.92 1.27393C16.406 1.27393 14.1292 2.43678 12.8919 5.48938L1.16187 34.5616H7.59607L18.1878 8.25127Z"/>
<path d="M114.456 21.6957V0.899902H120.834V21.6957C120.834 27.1583 123.642 29.8895 129.258 29.8895C134.875 29.8895 137.683 27.1583 137.683 21.6957V0.899902H144.062V21.6957C144.062 30.8319 139.127 35.3999 129.258 35.3999C119.39 35.3999 114.456 30.8319 114.456 21.6957Z"/>
<path d="M43.0635 34.5616V1.27393H48.8104V14.8356H65.6127V1.27393H71.4085V34.5616H65.6127V20.6547H48.8104V34.5616H43.0635Z" fill="#C5C0DE" stroke="#C5C0DE"/>
<path d="M94.4231 7.13687C93.6576 7.13687 93.1314 7.47604 92.7964 8.25127L82.5579 34.5616H76.3381L87.6771 5.48938C88.8733 2.43678 91.0741 1.27393 94.471 1.27393C97.8201 1.27393 100.021 2.43678 101.169 5.48938L112.078 34.5616H105.81L96.002 8.25127C95.715 7.47604 95.1887 7.13687 94.4231 7.13687Z"/>
</svg>
