<svg width="100" height="100" viewBox="0 0 100 100" fill="none" xmlns="http://www.w3.org/2000/svg">
<path d="M99.0008 68.5381L52.3036 21.844C51.6364 21.1761 50.8688 20.8417 50.0005 20.8417C49.1322 20.8417 48.3633 21.1761 47.6957 21.844L1.00235 68.5381C0.333416 69.2071 0 69.9746 0 70.8433C0 71.7115 0.334469 72.4802 1.00235 73.1477L6.01132 78.1563C6.67921 78.8242 7.44782 79.158 8.31611 79.158C9.18439 79.158 9.95301 78.8242 10.6209 78.1563L50.0005 38.7774L89.3816 78.1588C90.0491 78.8266 90.8181 79.1583 91.6849 79.1583C92.5546 79.1583 93.3233 78.8245 93.9908 78.1588L99.0005 73.148C99.668 72.4805 99.9997 71.7115 99.9997 70.8436C100 69.9746 99.6683 69.206 99.0008 68.5381Z" fill="black"/>
</svg>
