<svg width="145" height="20" viewBox="0 0 145 20" fill="none" xmlns="http://www.w3.org/2000/svg">
<path d="M28.3808 9.73174C28.5083 9.44954 28.7087 9.326 29.0002 9.326C29.2917 9.326 29.4921 9.44954 29.6014 9.73174L33.3367 19.309H35.7236L31.5693 8.72633C31.1321 7.61514 30.2939 7.19189 29.0184 7.19189C27.7247 7.19189 26.8866 7.61514 26.4311 8.72633L22.1128 19.309H24.4815L28.3808 9.73174ZM39.6989 7.40358V9.4848H46.4406C47.625 9.4848 48.1534 10.2079 48.1534 11.0545C48.1534 11.9011 47.6614 12.7125 46.4406 12.7125H41.6486C40.3002 12.7125 39.7172 13.2592 39.7172 14.5998V19.309H41.8672V15.0054C41.8672 14.7937 41.9765 14.7055 42.177 14.7055H45.3839L48.1898 19.309H50.5767L47.716 14.5469C49.5928 14.0353 50.3217 12.4479 50.3217 10.9663C50.3217 9.06155 49.1372 7.40358 46.3678 7.40358H39.6989ZM54.929 7.40358V19.309H57.079V7.40358H54.929ZM64.3718 9.89042C64.3718 9.46717 64.6269 9.20259 65.1189 9.20259C65.5016 9.20259 65.7202 9.36139 65.8842 9.71411L69.4736 17.3159C69.9838 18.674 70.7672 19.5207 72.48 19.5207C74.3749 19.5207 75.3042 18.48 75.3042 16.9103V7.40358H73.1359V16.8221C73.1359 17.2278 72.8627 17.4923 72.4072 17.4923C72.0063 17.4923 71.7694 17.2806 71.6236 16.9984L68.0343 9.39665C67.5241 8.03851 66.7587 7.19189 65.0461 7.19189C63.1329 7.19189 62.2218 8.23257 62.2218 9.78463V19.309H64.3718V9.89042ZM84.1032 7.40358C81.2062 7.40358 79.9854 8.74396 79.9854 10.6489C79.9854 11.9541 80.5685 12.8713 81.7163 13.3298C80.5867 13.7884 79.9489 14.7055 79.9489 16.0637C79.9489 17.9156 81.1333 19.309 84.0486 19.309H90.2801V17.2278H84.0486C82.7913 17.2278 82.19 16.6633 82.19 15.7286C82.19 14.7584 82.8278 14.2823 84.0669 14.2823H90.1708V12.395H84.1215C82.8825 12.395 82.2448 11.9541 82.2448 10.984C82.2448 10.0668 82.8096 9.4848 84.1032 9.4848H90.2619V7.40358H84.1032ZM102.268 7.40358V9.4848H108.664C109.83 9.4848 110.359 10.208 110.359 11.0723C110.359 11.9011 109.867 12.7125 108.646 12.7125H104.218C102.87 12.7125 102.287 13.2592 102.287 14.5998V19.309H104.437V15.0054C104.437 14.7937 104.546 14.7055 104.747 14.7055H108.573C111.452 14.7055 112.527 12.7654 112.527 10.9663C112.527 9.06155 111.342 7.40358 108.573 7.40358H102.268ZM116.821 7.40358V9.4848H123.563C124.748 9.4848 125.275 10.2079 125.275 11.0545C125.275 11.9011 124.784 12.7125 123.563 12.7125H118.771C117.423 12.7125 116.84 13.2592 116.84 14.5998V19.309H118.99V15.0054C118.99 14.7937 119.099 14.7055 119.299 14.7055H122.506L125.312 19.309H127.699L124.839 14.5469C126.715 14.0353 127.444 12.4479 127.444 10.9663C127.444 9.06155 126.26 7.40358 123.491 7.40358H116.821ZM136.886 7.40358C133.315 7.40358 131.329 9.37902 131.329 13.3828C131.329 17.3688 133.297 19.309 136.886 19.309H138.563C142.152 19.309 144.12 17.3688 144.12 13.3828C144.12 9.37902 142.133 7.40358 138.563 7.40358H136.886ZM138.563 9.4848C140.932 9.4848 141.952 10.6489 141.952 13.3652C141.952 16.0989 140.932 17.2278 138.563 17.2278H136.886C134.5 17.2278 133.479 16.0989 133.479 13.3828C133.479 10.6489 134.517 9.4848 136.886 9.4848H138.563Z" fill="#C5C0DE"/>
<path d="M14.7958 9.71411C14.6661 9.41428 14.4434 9.20259 14.1095 9.20259C13.7386 9.20259 13.4603 9.46717 13.4603 9.89042V16.9103C13.4603 18.48 12.5328 19.5207 10.6964 19.5207C9.02688 19.5207 8.21079 18.674 7.72843 17.3159L4.6863 9.71411C4.57501 9.41428 4.31532 9.20259 3.99997 9.20259C3.62897 9.20259 3.36928 9.46717 3.36928 9.89042V19.309H1.16187V9.78463C1.16187 8.23257 2.08935 7.19189 3.94432 7.19189C5.61379 7.19189 6.41142 8.03851 6.89372 9.39665L9.9359 16.9984C10.0472 17.2983 10.3068 17.4923 10.6407 17.4923C11.0118 17.4923 11.2714 17.2278 11.2714 16.8221V9.78463C11.2714 8.23257 12.1989 7.19189 14.0539 7.19189C15.7233 7.19189 16.5209 8.03851 17.0033 9.39665L20.8802 19.309H18.5429L14.7958 9.71411Z" fill="#C5C0DE"/>
</svg>
