<svg width="27" height="30" viewBox="0 0 27 30" fill="none" xmlns="http://www.w3.org/2000/svg">
<path fill-rule="evenodd" clip-rule="evenodd" d="M26.0292 8.65625V25.875C26.0292 26.8364 25.6491 27.7584 24.9726 28.4383C24.2961 29.1181 23.3785 29.5 22.4218 29.5H20.6181V27.6875H22.4218C22.9001 27.6875 23.3589 27.4965 23.6972 27.1566C24.0354 26.8167 24.2255 26.3557 24.2255 25.875V8.65625H20.6181C19.9005 8.65625 19.2123 8.36981 18.7049 7.85995C18.1976 7.35008 17.9125 6.65856 17.9125 5.9375V2.3125H7.99215C7.51378 2.3125 7.055 2.50346 6.71674 2.84337C6.37848 3.18328 6.18845 3.64429 6.18845 4.125V20.4375H4.38475V4.125C4.38475 3.16359 4.76481 2.24156 5.44133 1.56174C6.11785 0.881919 7.03541 0.5 7.99215 0.5L17.9125 0.5L26.0292 8.65625ZM3.66327 21.9781H0.777344V29.2263H2.20407V26.7939H3.65244C4.17011 26.7939 4.61021 26.6906 4.97275 26.4804C5.3389 26.2683 5.61848 25.9819 5.80787 25.6213C6.00445 25.2428 6.10424 24.8211 6.09826 24.3942C6.09826 23.9411 6.00267 23.5314 5.81328 23.1671C5.6249 22.805 5.3369 22.5049 4.98358 22.3026C4.62284 22.0851 4.18454 21.9781 3.66327 21.9781ZM4.64628 24.3942C4.65279 24.633 4.6001 24.8697 4.49297 25.0829C4.39686 25.2686 4.24725 25.4209 4.06369 25.5198C3.85372 25.6241 3.62147 25.6752 3.3873 25.6684H2.19866V23.12H3.3891C3.78231 23.12 4.09074 23.2288 4.3126 23.4481C4.53445 23.6692 4.64628 23.9846 4.64628 24.3942ZM6.84139 21.9781V29.2263H9.47479C10.1981 29.2263 10.7987 29.0813 11.2749 28.7968C11.7568 28.507 12.133 28.0692 12.3481 27.5479C12.5826 27.0042 12.7016 26.3481 12.7016 25.5832C12.7016 24.8219 12.5844 24.1731 12.3481 23.6348C12.1356 23.1195 11.7629 22.6871 11.2857 22.4022C10.8095 22.1195 10.2053 21.9781 9.47299 21.9781H6.84139ZM8.26812 23.1472H9.2836C9.73092 23.1472 10.0953 23.2378 10.3821 23.4227C10.6797 23.6183 10.9043 23.9078 11.0206 24.2456C11.1631 24.6099 11.2334 25.0648 11.2334 25.6104C11.239 25.9719 11.1978 26.3326 11.1107 26.6834C11.0465 26.96 10.9261 27.2204 10.7572 27.4482C10.6003 27.6515 10.3924 27.8091 10.1548 27.905C9.87641 28.0097 9.58075 28.0601 9.2836 28.0536H8.26812V23.1472ZM15.0194 26.3426V29.2263H13.5944V21.9781H18.1903V23.1617H15.0194V25.1863H17.9161V26.3426H15.0194Z" fill="#22305B" fill-opacity="0.7"/>
</svg>
