<svg width="14" height="14" viewBox="0 0 14 14" fill="none" xmlns="http://www.w3.org/2000/svg">
<path d="M6.9993 0C5.6147 0 4.26143 0.410543 3.11114 1.17971C1.9596 1.94888 1.06243 3.04213 0.532402 4.32119C0.00362193 5.60027 -0.135466 7.00779 0.133936 8.36564C0.404591 9.72349 1.0712 10.9708 2.05107 11.9498C3.02969 12.9288 4.27645 13.5954 5.63474 13.8655C6.99177 14.1356 8.39894 13.997 9.67828 13.4672C10.9576 12.9374 12.0515 12.0401 12.8196 10.889C13.589 9.7378 14 8.38447 14 7.00001C14 5.14347 13.262 3.363 11.95 2.05024C10.6369 0.737496 8.85629 0 6.9993 0ZM6.9993 12.6C5.89287 12.6 4.80899 12.2716 3.88802 11.6563C2.96704 11.0409 2.25031 10.1662 1.82553 9.14305C1.402 8.11973 1.29174 6.99374 1.50726 5.90753C1.72404 4.82121 2.25657 3.82337 3.03972 3.04019C3.82287 2.25703 4.82152 1.72368 5.9079 1.50761C6.99303 1.29152 8.11951 1.40241 9.14324 1.82627C10.167 2.25012 11.0403 2.96789 11.6568 3.88881C12.2721 4.80969 12.6004 5.89247 12.6004 7.00001C12.6004 8.48527 12.0102 9.90953 10.9601 10.9598C9.91009 12.01 8.4854 12.6 6.9993 12.6Z" fill="#C5C0DE"/>
<path d="M9.90747 5.46239C9.90747 4.91543 9.68933 4.3908 9.30236 4.00402C8.91539 3.6172 8.38916 3.3999 7.84198 3.3999H4.3999V10.2749H5.77647V7.52487H6.78212L8.61962 10.2749H10.2723L8.37929 7.44239C8.81556 7.32502 9.2013 7.06772 9.47736 6.71006C9.75465 6.35228 9.905 5.914 9.90747 5.46239ZM7.84198 6.14997H5.77647V4.77487H7.84198C8.02437 4.77487 8.19936 4.84732 8.32876 4.97625C8.45816 5.10517 8.53088 5.28008 8.53088 5.46239C8.53088 5.64474 8.45816 5.81968 8.32876 5.94852C8.19936 6.07748 8.02437 6.14997 7.84198 6.14997Z" fill="#C5C0DE"/>
</svg>
