<?xml version="1.0" encoding="utf-8"?><svg viewBox="0 0 145 100" xmlns="http://www.w3.org/2000/svg" xmlns:xlink="http://www.w3.org/1999/xlink"><style>:root>svg{display:none}:root>svg:target{display:block}</style><svg viewBox="0 0 145 36" id="ahau" xmlns="http://www.w3.org/2000/svg"><path d="M18.188 8.251c.346-.775.89-1.114 1.683-1.114.791 0 1.336.339 1.633 1.114l10.146 26.31h6.484L26.849 5.49c-1.188-3.052-3.465-4.215-6.929-4.215-3.514 0-5.79 1.163-7.028 4.215L1.162 34.562h6.434l10.592-26.31z"/><path d="M114.456 21.696V.9h6.378v20.796c0 5.462 2.808 8.194 8.424 8.194 5.617 0 8.425-2.732 8.425-8.194V.9h6.379v20.796c0 9.136-4.935 13.704-14.804 13.704-9.868 0-14.802-4.568-14.802-13.704z"/><path d="M43.063 34.562V1.274h5.747v13.562h16.803V1.274h5.796v33.288h-5.796V20.655H48.81v13.907h-5.747zM94.423 7.137c-.765 0-1.292.339-1.627 1.114l-10.238 26.31h-6.22L87.678 5.49c1.195-3.052 3.396-4.215 6.793-4.215 3.35 0 5.55 1.163 6.698 4.215l10.909 29.073h-6.268l-9.808-26.31c-.287-.776-.813-1.115-1.579-1.115z"/></svg><svg viewBox="0 0 100 100" id="arrow" xmlns="http://www.w3.org/2000/svg"><path d="M99 68.538L52.305 21.844c-.668-.668-1.435-1.002-2.303-1.002-.869 0-1.638.334-2.305 1.002L1.002 68.538C.333 69.208 0 69.975 0 70.843c0 .868.334 1.637 1.002 2.305l5.01 5.008c.667.668 1.436 1.002 2.304 1.002.868 0 1.637-.334 2.305-1.002L50 38.777 89.38 78.16c.668.668 1.437 1 2.304 1 .87 0 1.638-.335 2.306-1L99 73.148c.667-.667.999-1.436.999-2.304 0-.87-.332-1.638-1-2.306z"/></svg><svg viewBox="0 0 145 20" id="marine-pro" xmlns="http://www.w3.org/2000/svg"><path d="M28.38 9.732c.128-.282.329-.406.62-.406.292 0 .492.124.601.406l3.736 9.577h2.387L31.569 8.726c-.437-1.11-1.275-1.534-2.55-1.534-1.294 0-2.132.423-2.588 1.534L22.113 19.31h2.369l3.899-9.577zM39.7 7.404v2.08h6.742c1.184 0 1.712.724 1.712 1.57 0 .847-.492 1.659-1.712 1.659h-4.792c-1.349 0-1.932.546-1.932 1.887v4.709h2.15v-4.304c0-.211.11-.3.31-.3h3.207l2.806 4.604h2.387l-2.861-4.762c1.877-.512 2.606-2.1 2.606-3.58 0-1.905-1.185-3.563-3.954-3.563h-6.67zm15.23 0v11.905h2.15V7.404h-2.15zm9.443 2.486c0-.423.255-.687.747-.687.383 0 .601.158.765.511l3.59 7.602c.51 1.358 1.293 2.205 3.006 2.205 1.895 0 2.824-1.041 2.824-2.61V7.403h-2.168v9.418c0 .406-.273.67-.729.67-.4 0-.638-.211-.783-.494l-3.59-7.601c-.51-1.358-1.275-2.205-2.988-2.205-1.913 0-2.824 1.04-2.824 2.593v9.524h2.15V9.89zm19.731-2.486c-2.897 0-4.118 1.34-4.118 3.245 0 1.305.584 2.222 1.731 2.68-1.13.46-1.767 1.377-1.767 2.735 0 1.852 1.184 3.245 4.1 3.245h6.231v-2.081H84.05c-1.258 0-1.859-.565-1.859-1.5 0-.97.638-1.446 1.877-1.446h6.104v-1.887h-6.05c-1.239 0-1.876-.44-1.876-1.411 0-.917.565-1.5 1.858-1.5h6.159v-2.08h-6.159zm18.165 0v2.08h6.396c1.166 0 1.695.724 1.695 1.588 0 .83-.492 1.64-1.713 1.64h-4.428c-1.348 0-1.931.547-1.931 1.888v4.709h2.15v-4.304c0-.211.109-.3.31-.3h3.826c2.879 0 3.954-1.94 3.954-3.739 0-1.904-1.185-3.562-3.954-3.562h-6.305zm14.553 0v2.08h6.742c1.185 0 1.712.724 1.712 1.57 0 .847-.491 1.659-1.712 1.659h-4.792c-1.348 0-1.931.546-1.931 1.887v4.709h2.15v-4.304c0-.211.109-.3.309-.3h3.207l2.806 4.604h2.387l-2.86-4.762c1.876-.512 2.605-2.1 2.605-3.58 0-1.905-1.184-3.563-3.953-3.563h-6.67zm20.065 0c-3.571 0-5.557 1.975-5.557 5.979 0 3.986 1.968 5.926 5.557 5.926h1.677c3.589 0 5.557-1.94 5.557-5.926 0-4.004-1.987-5.98-5.557-5.98h-1.677zm1.677 2.08c2.369 0 3.389 1.165 3.389 3.881 0 2.734-1.02 3.863-3.389 3.863h-1.677c-2.386 0-3.407-1.13-3.407-3.845 0-2.734 1.038-3.898 3.407-3.898h1.677zM14.796 9.714c-.13-.3-.353-.511-.686-.511-.371 0-.65.264-.65.687v7.02c0 1.57-.927 2.61-2.764 2.61-1.67 0-2.485-.846-2.968-2.204L4.686 9.714c-.111-.3-.37-.511-.686-.511-.371 0-.63.264-.63.687v9.419H1.161V9.785c0-1.552.927-2.593 2.782-2.593 1.67 0 2.467.847 2.95 2.205l3.042 7.601c.111.3.37.494.705.494.37 0 .63-.264.63-.67V9.785c0-1.552.928-2.593 2.783-2.593 1.67 0 2.467.847 2.95 2.205l3.876 9.912h-2.337l-3.747-9.595z"/></svg><svg viewBox="0 0 27 30" id="pdf" xmlns="http://www.w3.org/2000/svg"><path fill-rule="evenodd" clip-rule="evenodd" d="M26.03 8.656v17.219c0 .961-.38 1.883-1.057 2.563a3.599 3.599 0 01-2.551 1.062h-1.804v-1.813h1.804a1.8 1.8 0 001.275-.53c.338-.34.529-.801.529-1.282V8.656h-3.608a2.7 2.7 0 01-1.913-.796 2.726 2.726 0 01-.792-1.923V2.313h-9.92a1.8 1.8 0 00-1.276.531c-.339.34-.529.801-.529 1.282v16.313H4.385V4.125c0-.961.38-1.883 1.056-2.563A3.599 3.599 0 017.992.5h9.92l8.117 8.156zM3.662 21.978H.777v7.248h1.427v-2.432h1.448c.518 0 .958-.103 1.32-.314.367-.212.646-.498.836-.859.196-.378.296-.8.29-1.227 0-.453-.095-.863-.285-1.227a2.127 2.127 0 00-.83-.864c-.36-.218-.798-.325-1.32-.325zm.983 2.416c.007.239-.046.476-.153.689a1.038 1.038 0 01-.43.437c-.21.104-.442.155-.676.148H2.2V23.12h1.19c.393 0 .702.109.924.328.221.221.333.537.333.946zm2.195-2.416v7.248h2.634c.723 0 1.324-.145 1.8-.43.482-.289.858-.727 1.073-1.248.235-.544.354-1.2.354-1.965 0-.761-.118-1.41-.354-1.948a2.581 2.581 0 00-1.062-1.233c-.476-.283-1.08-.424-1.813-.424H6.841zm1.427 1.17h1.016c.447 0 .811.09 1.098.275.298.195.522.485.639.823.142.364.212.819.212 1.364.006.362-.035.723-.122 1.073a2.07 2.07 0 01-.354.765c-.157.203-.365.361-.602.457a2.33 2.33 0 01-.871.149H8.268v-4.907zm6.751 3.195v2.883h-1.425v-7.248h4.596v1.184h-3.17v2.024h2.896v1.157H15.02z"/></svg><svg viewBox="0 0 24 24" id="phone" xmlns="http://www.w3.org/2000/svg"><path d="M22.707 17.605l-2.331-2.331a3.294 3.294 0 00-5.56 1.685c-3.843-.718-7.581-4.441-7.814-7.769a3.295 3.295 0 001.724-5.567l-2.33-2.33a3.295 3.295 0 00-4.66 0c-6.99 6.99 13.98 27.962 20.97 20.97a3.296 3.296 0 000-4.659z"/></svg><svg viewBox="0 0 14 14" id="r" xmlns="http://www.w3.org/2000/svg"><path d="M7 0A6.995 6.995 0 00.531 4.321 7 7 0 107 0zm0 12.6a5.603 5.603 0 01-5.174-3.457A5.607 5.607 0 013.04 3.04 5.602 5.602 0 0112.6 7 5.6 5.6 0 017 12.6z"/><path d="M9.907 5.462A2.063 2.063 0 007.842 3.4H4.4v6.875h1.376v-2.75h1.006l1.838 2.75h1.652L8.38 7.442a2.065 2.065 0 001.528-1.98zm-2.065.688H5.776V4.775h2.066a.69.69 0 01.689.687.686.686 0 01-.689.688z"/></svg></svg>