<svg width="415" height="100" viewBox="0 0 415 100" fill="none" xmlns="http://www.w3.org/2000/svg">
<path d="M50.6814 21.7904C51.6838 19.528 53.2588 18.5382 55.5497 18.5382C57.8406 18.5382 59.4156 19.528 60.2749 21.7904L89.6276 98.5715H108.385L75.7387 13.7306C72.3023 4.82216 65.7158 1.42859 55.6929 1.42859C45.5268 1.42859 38.9403 4.82216 35.3608 13.7306L1.42603 98.5715H20.04L50.6814 21.7904Z" fill="#C61E3D"/>
<path d="M332.148 60.2776V0H349.839V60.2776C349.839 76.1111 357.627 84.0277 373.203 84.0277C388.781 84.0277 396.569 76.1111 396.569 60.2776V0H414.26V60.2776C414.26 86.7591 400.574 100 373.203 100C345.834 100 332.148 86.7591 332.148 60.2776Z" fill="#C61E3D"/>
<path d="M124.072 98.5715V1.42859H140.842V41.0053H189.873V1.42859H206.787V98.5715H189.873V57.9873H140.842V98.5715H124.072Z" fill="#C61E3D"/>
<path d="M273.729 18.5382C271.498 18.5382 269.965 19.528 268.99 21.7904L239.165 98.5715H221.048L254.078 13.7306C257.562 4.82216 263.973 1.42859 273.867 1.42859C283.623 1.42859 290.034 4.82216 293.379 13.7306L325.155 98.5715H306.897L278.328 21.7904C277.491 19.528 275.958 18.5382 273.729 18.5382Z" fill="#C61E3D"/>
</svg>
