<svg width="145" height="56" viewBox="0 0 145 56" fill="none" xmlns="http://www.w3.org/2000/svg">
<path d="M18.1878 8.25127C18.5342 7.47604 19.0787 7.13687 19.8705 7.13687C20.6624 7.13687 21.2069 7.47604 21.5038 8.25127L31.6501 34.5616H38.1337L26.8492 5.48938C25.6612 2.43678 23.3845 1.27393 19.92 1.27393C16.406 1.27393 14.1292 2.43678 12.8919 5.48938L1.16187 34.5616H7.59607L18.1878 8.25127Z" fill="#C5C0DE" stroke="#C5C0DE"/>
<path d="M114.456 22.2617V1.3606H120.834V22.2617C120.834 27.7519 123.642 30.4969 129.258 30.4969C134.875 30.4969 137.683 27.7519 137.683 22.2617V1.3606H144.062V22.2617C144.062 31.4441 139.127 36.0353 129.258 36.0353C119.39 36.0353 114.456 31.4441 114.456 22.2617Z" fill="#C5C0DE"/>
<path d="M43.0635 34.5616V1.27393H48.8104V14.8356H65.6127V1.27393H71.4085V34.5616H65.6127V20.6547H48.8104V34.5616H43.0635Z" fill="#C5C0DE" stroke="#C5C0DE"/>
<path d="M94.4231 7.13687C93.6576 7.13687 93.1314 7.47604 92.7964 8.25127L82.5579 34.5616H76.3381L87.6771 5.48938C88.8733 2.43678 91.0741 1.27393 94.471 1.27393C97.8201 1.27393 100.021 2.43678 101.169 5.48938L112.078 34.5616H105.81L96.002 8.25127C95.715 7.47604 95.1887 7.13687 94.4231 7.13687Z" fill="#C5C0DE" stroke="#C5C0DE"/>
<path d="M28.3808 45.7317C28.5083 45.4495 28.7087 45.326 29.0002 45.326C29.2917 45.326 29.4921 45.4495 29.6014 45.7317L33.3367 55.309H35.7236L31.5693 44.7263C31.1321 43.6151 30.2939 43.1919 29.0184 43.1919C27.7247 43.1919 26.8866 43.6151 26.4311 44.7263L22.1128 55.309H24.4815L28.3808 45.7317ZM39.6989 43.4036V45.4848H46.4406C47.625 45.4848 48.1534 46.2079 48.1534 47.0545C48.1534 47.9011 47.6614 48.7125 46.4406 48.7125H41.6486C40.3002 48.7125 39.7172 49.2592 39.7172 50.5998V55.309H41.8672V51.0054C41.8672 50.7937 41.9765 50.7055 42.177 50.7055H45.3839L48.1898 55.309H50.5767L47.716 50.5469C49.5928 50.0353 50.3217 48.4479 50.3217 46.9663C50.3217 45.0616 49.1372 43.4036 46.3678 43.4036H39.6989ZM54.929 43.4036V55.309H57.079V43.4036H54.929ZM64.3718 45.8904C64.3718 45.4672 64.6269 45.2026 65.1189 45.2026C65.5016 45.2026 65.7202 45.3614 65.8842 45.7141L69.4736 53.3159C69.9838 54.674 70.7672 55.5207 72.48 55.5207C74.3749 55.5207 75.3042 54.48 75.3042 52.9103V43.4036H73.1359V52.8221C73.1359 53.2278 72.8627 53.4923 72.4072 53.4923C72.0063 53.4923 71.7694 53.2806 71.6236 52.9984L68.0343 45.3966C67.5241 44.0385 66.7587 43.1919 65.0461 43.1919C63.1329 43.1919 62.2218 44.2326 62.2218 45.7846V55.309H64.3718V45.8904ZM84.1032 43.4036C81.2062 43.4036 79.9854 44.744 79.9854 46.6489C79.9854 47.9541 80.5685 48.8713 81.7163 49.3298C80.5867 49.7884 79.9489 50.7055 79.9489 52.0637C79.9489 53.9156 81.1333 55.309 84.0486 55.309H90.2801V53.2278H84.0486C82.7913 53.2278 82.19 52.6633 82.19 51.7286C82.19 50.7584 82.8278 50.2823 84.0669 50.2823H90.1708V48.395H84.1215C82.8825 48.395 82.2448 47.9541 82.2448 46.984C82.2448 46.0668 82.8096 45.4848 84.1032 45.4848H90.2619V43.4036H84.1032ZM102.268 43.4036V45.4848H108.664C109.83 45.4848 110.359 46.208 110.359 47.0723C110.359 47.9011 109.867 48.7125 108.646 48.7125H104.218C102.87 48.7125 102.287 49.2592 102.287 50.5998V55.309H104.437V51.0054C104.437 50.7937 104.546 50.7055 104.747 50.7055H108.573C111.452 50.7055 112.527 48.7654 112.527 46.9663C112.527 45.0616 111.342 43.4036 108.573 43.4036H102.268ZM116.821 43.4036V45.4848H123.563C124.748 45.4848 125.275 46.2079 125.275 47.0545C125.275 47.9011 124.784 48.7125 123.563 48.7125H118.771C117.423 48.7125 116.84 49.2592 116.84 50.5998V55.309H118.99V51.0054C118.99 50.7937 119.099 50.7055 119.299 50.7055H122.506L125.312 55.309H127.699L124.839 50.5469C126.715 50.0353 127.444 48.4479 127.444 46.9663C127.444 45.0616 126.26 43.4036 123.491 43.4036H116.821ZM136.886 43.4036C133.315 43.4036 131.329 45.379 131.329 49.3828C131.329 53.3688 133.297 55.309 136.886 55.309H138.563C142.152 55.309 144.12 53.3688 144.12 49.3828C144.12 45.379 142.133 43.4036 138.563 43.4036H136.886ZM138.563 45.4848C140.932 45.4848 141.952 46.6489 141.952 49.3652C141.952 52.0989 140.932 53.2278 138.563 53.2278H136.886C134.5 53.2278 133.479 52.0989 133.479 49.3828C133.479 46.6489 134.517 45.4848 136.886 45.4848H138.563Z" fill="#C5C0DE"/>
<path d="M14.7958 45.7141C14.6661 45.4143 14.4434 45.2026 14.1095 45.2026C13.7386 45.2026 13.4603 45.4672 13.4603 45.8904V52.9103C13.4603 54.48 12.5328 55.5207 10.6964 55.5207C9.02688 55.5207 8.21079 54.674 7.72843 53.3159L4.6863 45.7141C4.57501 45.4143 4.31532 45.2026 3.99997 45.2026C3.62897 45.2026 3.36928 45.4672 3.36928 45.8904V55.309H1.16187V45.7846C1.16187 44.2326 2.08935 43.1919 3.94432 43.1919C5.61379 43.1919 6.41142 44.0385 6.89372 45.3966L9.9359 52.9984C10.0472 53.2983 10.3068 53.4923 10.6407 53.4923C11.0118 53.4923 11.2714 53.2278 11.2714 52.8221V45.7846C11.2714 44.2326 12.1989 43.1919 14.0539 43.1919C15.7233 43.1919 16.5209 44.0385 17.0033 45.3966L20.8802 55.309H18.5429L14.7958 45.7141Z" fill="#C5C0DE"/>
</svg>
