<svg width="75" height="75" viewBox="0 0 75 75" fill="none" xmlns="http://www.w3.org/2000/svg">
<path d="M35.661 5.97652C36.432 4.64947 38.3486 4.64947 39.1196 5.97652L42.4778 11.7567C43.2525 13.09 42.2905 14.7614 40.7485 14.7614H34.0321C32.4901 14.7614 31.5282 13.09 32.3028 11.7567L35.661 5.97652Z" stroke="#22305B" stroke-width="3"/>
<path d="M35.661 69.0235C36.432 70.3505 38.3486 70.3505 39.1196 69.0235L42.4778 63.2433C43.2525 61.91 42.2905 60.2386 40.7485 60.2386H34.0321C32.4901 60.2386 31.5282 61.91 32.3028 63.2433L35.661 69.0235Z" stroke="#22305B" stroke-width="3"/>
<path d="M11.7533 55.6404C10.2097 55.7158 9.16037 54.0987 9.86642 52.7326L12.9349 46.7955C13.6396 45.432 15.5651 45.3411 16.4026 46.6318L20.0425 52.2412C20.88 53.5318 20.0022 55.2373 18.4616 55.3126L11.7533 55.6404Z" stroke="#22305B" stroke-width="3"/>
<path d="M62.2467 55.6404C63.7903 55.7158 64.8396 54.0987 64.1336 52.7326L61.0651 46.7955C60.3604 45.432 58.4349 45.3411 57.5974 46.6318L53.9575 52.2412C53.12 53.5318 53.9978 55.2373 55.5384 55.3126L62.2467 55.6404Z" stroke="#22305B" stroke-width="3"/>
<path d="M62.3991 19.3596C63.9426 19.2842 64.992 20.9013 64.2859 22.2674L61.2174 28.2045C60.5128 29.568 58.5873 29.6589 57.7497 28.3682L54.1099 22.7588C53.2724 21.4682 54.1501 19.7627 55.6907 19.6874L62.3991 19.3596Z" stroke="#22305B" stroke-width="3"/>
<path d="M12.6019 19.3596C11.0583 19.2842 10.009 20.9013 10.7151 22.2674L13.7835 28.2045C14.4882 29.568 16.4137 29.6589 17.2512 28.3682L20.8911 22.7588C21.7286 21.4682 20.8508 19.7627 19.3103 19.6874L12.6019 19.3596Z" stroke="#22305B" stroke-width="3"/>
<path fill-rule="evenodd" clip-rule="evenodd" d="M37.5 49C43.8513 49 49 43.8513 49 37.5C49 31.1487 43.8513 26 37.5 26C31.1487 26 26 31.1487 26 37.5C26 43.8513 31.1487 49 37.5 49ZM37.5 46C42.1944 46 46 42.1944 46 37.5C46 32.8056 42.1944 29 37.5 29C32.8056 29 29 32.8056 29 37.5C29 42.1944 32.8056 46 37.5 46Z" fill="#22305B"/>
<rect x="36" y="16" width="3" height="11" fill="#22305B"/>
<rect x="36" y="48" width="3" height="11" fill="#22305B"/>
<path d="M18 26.4919L19.6705 24L29.1499 30.3546L27.4795 32.8465L18 26.4919Z" fill="#22305B"/>
<path d="M45 44.4919L46.6705 42L56.1499 48.3546L54.4795 50.8465L45 44.4919Z" fill="#22305B"/>
<path d="M19.5918 50.5977L18.0002 48.0547L27.674 42L29.2656 44.543L19.5918 50.5977Z" fill="#22305B"/>
<path d="M47.5918 32.5977L46.0002 30.0547L55.674 24L57.2656 26.543L47.5918 32.5977Z" fill="#22305B"/>
</svg>
