<svg width="75" height="75" viewBox="0 0 75 75" fill="none" xmlns="http://www.w3.org/2000/svg">
<path d="M49.2353 18.6474C44.9065 15.2894 39.4541 13.3586 33.6302 13.6327C20.9297 14.2305 10.6232 24.0754 10.0257 36.7819C9.36919 50.743 21.3908 62.655 35.9033 61.972C48.6038 61.3742 58.1526 51.6459 58.7501 38.9394C58.7879 38.1353 58.7843 37.3377 58.7413 36.5487" stroke="#22305B" stroke-width="3" stroke-linecap="round"/>
<path d="M27.6164 33.126L32.092 38.3754C33.2631 39.749 35.3734 39.7848 36.5904 38.4517L58.4474 14.511C59.6645 13.1779 61.7747 13.2137 62.9458 14.5873L65.4316 17.5028C66.4103 18.6507 66.3844 20.3469 65.3711 21.4644L36.5844 53.2111C35.371 54.5493 33.2588 54.5195 32.0836 53.1476L20.6693 39.8223C19.7089 38.701 19.707 37.0477 20.6648 35.9242L23.0506 33.126C24.2484 31.7212 26.4186 31.7212 27.6164 33.126Z" stroke="#22305B" stroke-width="3"/>
</svg>
