<svg width="100" height="75" viewBox="0 0 100 75" fill="none" xmlns="http://www.w3.org/2000/svg">
<path d="M57.9587 55.7027C57.9587 55.7027 44.6026 55.7027 36.0446 55.7027M57.9587 55.7027C57.9587 55.7027 62.4107 55.7027 65.2634 55.7027M57.9587 55.7027L57.5487 38.5338M19.3482 55.7027C18.0436 55.7027 16.4464 55.7027 14.9996 55.7027C12.7904 55.7027 11 53.9118 11 51.7027V16C11 13.7909 12.7909 12 15 12H53.0095C55.1815 12 56.9566 13.7332 57.0084 15.9045L57.1388 21.3649M19.3482 55.7027C19.3482 51.1053 23.0858 47.3784 27.6964 47.3784C32.307 47.3784 36.0446 51.1053 36.0446 55.7027M19.3482 55.7027C19.3482 60.3001 23.0858 64.027 27.6964 64.027C32.307 64.027 36.0446 60.3001 36.0446 55.7027M57.1388 21.3649H77.6591C79.0365 21.3649 80.3169 22.0735 81.0484 23.2405L89.6973 37.0391C90.0964 37.6758 90.308 38.4121 90.308 39.1635V40.0946M57.1388 21.3649L57.5487 38.5338M84.0469 28.6486H72.394C70.1848 28.6486 68.394 30.4395 68.394 32.6486V36.0946C68.394 38.3037 70.1848 40.0946 72.394 40.0946H90.308M90.308 40.0946V51.7027C90.308 53.9118 88.5176 55.7027 86.3084 55.7027C84.8616 55.7027 83.2644 55.7027 81.9598 55.7027M81.9598 55.7027C81.9598 51.1053 78.2222 47.3784 73.6116 47.3784C69.001 47.3784 65.2634 51.1053 65.2634 55.7027M81.9598 55.7027C81.9598 60.3001 78.2222 64.027 73.6116 64.027C69.001 64.027 65.2634 60.3001 65.2634 55.7027M57.5487 38.5338H22.4788" stroke="#22305B" stroke-width="3" stroke-linecap="round"/>
</svg>
