<svg width="140" height="70" viewBox="0 0 140 70" fill="none" xmlns="http://www.w3.org/2000/svg">
<path d="M18.8153 24.1594C19.0964 23.5306 19.5382 23.2555 20.1807 23.2555C20.8233 23.2555 21.2651 23.5306 21.506 24.1594L29.739 45.5H35L25.8434 21.9192C24.8795 19.4432 23.0321 18.5 20.2209 18.5C17.3695 18.5 15.5221 19.4432 14.5181 21.9192L5 45.5H10.2209L18.8153 24.1594Z" fill="#22305B" stroke="#22305B"/>
<path d="M96.9297 35.5234V18.5703H102.105V35.5234C102.105 39.9766 104.384 42.2031 108.941 42.2031C113.499 42.2031 115.777 39.9766 115.777 35.5234V18.5703H120.953V35.5234C120.953 42.9714 116.949 46.6953 108.941 46.6953C100.934 46.6953 96.9297 42.9714 96.9297 35.5234Z" fill="#22305B"/>
<path d="M39 45.5V18.5H43.6632V29.5H57.2971V18.5H62V45.5H57.2971V34.22H43.6632V45.5H39Z" fill="#22305B" stroke="#22305B"/>
<path d="M80.6747 23.2555C80.0535 23.2555 79.6265 23.5306 79.3547 24.1594L71.0469 45.5H66L75.2008 21.9192C76.1714 19.4432 77.9572 18.5 80.7135 18.5C83.4311 18.5 85.2169 19.4432 86.1486 21.9192L95 45.5H89.9143L81.9558 24.1594C81.7229 23.5306 81.2959 23.2555 80.6747 23.2555Z" fill="#22305B" stroke="#22305B"/>
<path d="M27.086 54.5601C27.1895 54.3312 27.3521 54.231 27.5886 54.231C27.8252 54.231 27.9878 54.3312 28.0765 54.5601L31.1074 62.3283H33.0442L29.6733 53.7446C29.3185 52.8433 28.6384 52.5 27.6034 52.5C26.5537 52.5 25.8736 52.8433 25.504 53.7446L22 62.3283H23.922L27.086 54.5601ZM36.2699 52.6717V54.3598H41.7403C42.7013 54.3598 43.1301 54.9463 43.1301 55.633C43.1301 56.3197 42.7309 56.9778 41.7403 56.9778H37.8519C36.7578 56.9778 36.2847 57.4213 36.2847 58.5086V62.3283H38.0293V58.8376C38.0293 58.6659 38.118 58.5944 38.2807 58.5944H40.8828L43.1596 62.3283H45.0964L42.7752 58.4657C44.2981 58.0508 44.8895 56.7632 44.8895 55.5615C44.8895 54.0165 43.9284 52.6717 41.6812 52.6717H36.2699ZM48.628 52.6717V62.3283H50.3726V52.6717H48.628ZM56.2902 54.6888C56.2902 54.3455 56.4972 54.1309 56.8964 54.1309C57.2069 54.1309 57.3843 54.2597 57.5174 54.5458L60.4299 60.7117C60.8439 61.8133 61.4796 62.5 62.8694 62.5C64.407 62.5 65.161 61.6559 65.161 60.3827V52.6717H63.4016V60.3112C63.4016 60.6402 63.1799 60.8548 62.8103 60.8548C62.485 60.8548 62.2928 60.6831 62.1745 60.4542L59.262 54.2883C58.848 53.1867 58.227 52.5 56.8373 52.5C55.2849 52.5 54.5456 53.3441 54.5456 54.603V62.3283H56.2902V54.6888ZM72.3008 52.6717C69.9501 52.6717 68.9595 53.7589 68.9595 55.304C68.9595 56.3627 69.4326 57.1066 70.364 57.4785C69.4474 57.8505 68.9299 58.5944 68.9299 59.696C68.9299 61.1981 69.8909 62.3283 72.2565 62.3283H77.3129V60.6402H72.2565C71.2363 60.6402 70.7484 60.1824 70.7484 59.4242C70.7484 58.6373 71.2659 58.2511 72.2713 58.2511H77.2242V56.7203H72.3156C71.3103 56.7203 70.7928 56.3627 70.7928 55.5758C70.7928 54.8319 71.2511 54.3598 72.3008 54.3598H77.2981V52.6717H72.3008ZM87.0406 52.6717V54.3598H92.2301C93.1763 54.3598 93.6051 54.9464 93.6051 55.6474C93.6051 56.3197 93.2059 56.9778 92.2153 56.9778H88.6226C87.5285 56.9778 87.0554 57.4213 87.0554 58.5086V62.3283H88.8V58.8376C88.8 58.6659 88.8887 58.5944 89.0514 58.5944H92.1562C94.4921 58.5944 95.3645 57.0207 95.3645 55.5615C95.3645 54.0165 94.4034 52.6717 92.1562 52.6717H87.0406ZM98.8493 52.6717V54.3598H104.32C105.281 54.3598 105.709 54.9463 105.709 55.633C105.709 56.3197 105.31 56.9778 104.32 56.9778H100.431C99.3372 56.9778 98.8641 57.4213 98.8641 58.5086V62.3283H100.609V58.8376C100.609 58.6659 100.697 58.5944 100.86 58.5944H103.462L105.739 62.3283H107.676L105.355 58.4657C106.877 58.0508 107.469 56.7632 107.469 55.5615C107.469 54.0165 106.508 52.6717 104.261 52.6717H98.8493ZM115.13 52.6717C112.233 52.6717 110.621 54.274 110.621 57.5215C110.621 60.7546 112.218 62.3283 115.13 62.3283H116.491C119.403 62.3283 121 60.7546 121 57.5215C121 54.274 119.388 52.6717 116.491 52.6717H115.13ZM116.491 54.3598C118.413 54.3598 119.241 55.304 119.241 57.5072C119.241 59.7246 118.413 60.6402 116.491 60.6402H115.13C113.194 60.6402 112.366 59.7246 112.366 57.5215C112.366 55.304 113.208 54.3598 115.13 54.3598H116.491Z" fill="#C61E3D"/>
<path d="M16.063 54.5458C15.9577 54.3026 15.777 54.1309 15.5061 54.1309C15.2051 54.1309 14.9793 54.3455 14.9793 54.6888V60.3827C14.9793 61.6559 14.2267 62.5 12.7366 62.5C11.3819 62.5 10.7197 61.8133 10.3283 60.7117L7.85983 54.5458C7.76952 54.3026 7.5588 54.1309 7.30292 54.1309C7.00188 54.1309 6.79116 54.3455 6.79116 54.6888V62.3283H5V54.603C5 53.3441 5.75259 52.5 7.25776 52.5C8.61242 52.5 9.25964 53.1867 9.65099 54.2883L12.1195 60.4542C12.2098 60.6974 12.4205 60.8548 12.6914 60.8548C12.9925 60.8548 13.2032 60.6402 13.2032 60.3112V54.603C13.2032 53.3441 13.9558 52.5 15.461 52.5C16.8156 52.5 17.4628 53.1867 17.8542 54.2883L21 62.3283H19.1035L16.063 54.5458Z" fill="#C61E3D"/>
<path d="M130.586 3.5C129.481 3.5 128.401 3.82705 127.483 4.43979C126.564 5.05253 125.848 5.92344 125.425 6.94238C125.003 7.96133 124.892 9.08255 125.107 10.1643C125.323 11.246 125.855 12.2396 126.637 13.0195C127.418 13.7994 128.413 14.3305 129.497 14.5456C130.58 14.7608 131.703 14.6504 132.724 14.2283C133.745 13.8063 134.618 13.0915 135.231 12.1745C135.845 11.2574 136.173 10.1793 136.173 9.07641C136.173 7.59743 135.584 6.17906 134.537 5.13328C133.489 4.08751 132.068 3.5 130.586 3.5ZM130.586 13.5375C129.703 13.5375 128.838 13.2759 128.103 12.7857C127.368 12.2955 126.796 11.5987 126.457 10.7836C126.119 9.96841 126.031 9.07142 126.203 8.20607C126.376 7.34071 126.801 6.5458 127.426 5.9219C128.051 5.29801 128.848 4.87313 129.715 4.701C130.581 4.52886 131.48 4.6172 132.297 4.95486C133.114 5.29251 133.811 5.8643 134.303 6.59793C134.794 7.33153 135.056 8.19408 135.056 9.07641C135.056 10.2596 134.585 11.3942 133.747 12.2309C132.909 13.0675 131.772 13.5375 130.586 13.5375Z" fill="#22305B"/>
<path d="M132.821 7.961C132.821 7.51735 132.644 7.09182 132.33 6.7781C132.016 6.46434 131.589 6.28809 131.145 6.28809H128.352V11.8645H129.469V9.63392H130.285L131.776 11.8645H133.117L131.581 9.567C131.935 9.4718 132.248 9.26308 132.472 8.97297C132.697 8.68279 132.819 8.32734 132.821 7.961ZM131.145 8.51866H129.469V7.40334H131.145C131.293 7.40334 131.435 7.46211 131.54 7.56668C131.645 7.67125 131.704 7.81312 131.704 7.961C131.704 8.10889 131.645 8.25075 131.54 8.35532C131.435 8.4599 131.293 8.51866 131.145 8.51866Z" fill="#22305B"/>
</svg>
