<svg width="75" height="77" viewBox="0 0 75 77" fill="none" xmlns="http://www.w3.org/2000/svg">
<path d="M28.3172 15.1064L29.5707 13.9105C30.8166 12.7218 32.5864 12.2578 34.2551 12.6824L36.2993 13.2025C37.1517 13.4194 38.0461 13.4076 38.8924 13.1683L40.352 12.7557C42.0144 12.2857 43.8016 12.7072 45.0789 13.8705L46.5066 15.1707C47.1226 15.7317 47.8689 16.1299 48.6779 16.3291L50.5984 16.8019C52.476 17.2642 53.9187 18.7678 54.3031 20.6629L54.484 21.5545C54.7377 22.805 55.4599 23.9112 56.5026 24.6466L56.5729 24.6961C58.3229 25.9303 59.0928 28.1419 58.4873 30.196L58.1381 31.3805C57.8476 32.3659 57.8677 33.4169 58.1957 34.3905L58.4838 35.2455C59.1038 37.0858 58.602 39.1187 57.197 40.4593L56.0025 41.599C55.2707 42.2972 54.7679 43.2009 54.5604 44.1907L54.3186 45.3443C53.9243 47.2254 52.4866 48.714 50.6204 49.1735L48.6779 49.6518C47.8689 49.8509 47.1226 50.2491 46.5066 50.8101L45.0789 52.1104C43.8016 53.2736 42.0144 53.6951 40.352 53.2251L38.8924 52.8125C38.0461 52.5733 37.1517 52.5615 36.2993 52.7783L34.2551 53.2984C32.5864 53.723 30.8166 53.259 29.5707 52.0704L28.3172 50.8744C27.686 50.2721 26.9082 49.8455 26.061 49.6369L24.0673 49.1461C22.2592 48.7008 20.8482 47.2877 20.4059 45.4788L20.0374 43.9722C19.8289 43.1197 19.3997 42.3371 18.793 41.7031L17.2744 40.1162C16.1605 38.9522 15.6758 37.3229 15.9721 35.7394L16.3432 33.7568C16.45 33.1863 16.4566 32.6016 16.3628 32.0289L15.9819 29.7029C15.685 27.8902 16.406 26.0606 17.8598 24.9377L18.3178 24.584C19.2244 23.8837 19.8631 22.8933 20.127 21.7784L20.422 20.5321C20.8539 18.707 22.271 17.2771 24.0921 16.8287L26.0611 16.3439C26.9082 16.1353 27.686 15.7087 28.3172 15.1064Z" stroke="#22305B" stroke-width="3"/>
<path d="M24.7421 49.3802L19.0691 60.7606C18.0749 62.7551 19.5255 65.099 21.754 65.099H25.1294C26.0288 65.099 26.8807 65.5026 27.4505 66.1984L28.5596 67.5528C29.9574 69.2599 32.6577 68.9249 33.5959 66.9279L36.6168 60.4984M40.0115 53.2141L36.6168 60.4984M36.6168 60.4984L40.6348 67.6793C41.6219 69.4435 44.0358 69.7462 45.428 68.2805L47.5628 66.033C48.1292 65.4367 48.9155 65.099 49.738 65.099H52.8996C55.1147 65.099 56.5659 62.7808 55.5982 60.7883L50.0572 49.3802" stroke="#22305B" stroke-width="3"/>
<line x1="39.75" y1="27.25" x2="34.25" y2="27.25" stroke="#22305B" stroke-width="2.5" stroke-linecap="round"/>
<line x1="39.75" y1="40.9643" x2="34.25" y2="40.9643" stroke="#22305B" stroke-width="2.5" stroke-linecap="round"/>
<path d="M37 28.0714L37 40.0714" stroke="#22305B" stroke-width="2.5" stroke-linecap="round"/>
</svg>
